<svg xmlns="http://www.w3.org/2000/svg" viewBox="0 0 200 200" width="200" height="200">
  <defs>
    <linearGradient id="leafGradient" x1="0%" y1="0%" x2="100%" y2="100%">
      <stop offset="0%" style="stop-color:#ef4444;stop-opacity:1" />
      <stop offset="30%" style="stop-color:#dc2626;stop-opacity:1" />
      <stop offset="70%" style="stop-color:#b91c1c;stop-opacity:1" />
      <stop offset="100%" style="stop-color:#991b1b;stop-opacity:1" />
    </linearGradient>
    <linearGradient id="stemGradient" x1="0%" y1="0%" x2="0%" y2="100%">
      <stop offset="0%" style="stop-color:#a16207;stop-opacity:1" />
      <stop offset="100%" style="stop-color:#713f12;stop-opacity:1" />
    </linearGradient>
    <filter id="dropShadow">
      <feDropShadow dx="2" dy="4" stdDeviation="3" flood-opacity="0.3"/>
    </filter>
  </defs>
  
  <circle cx="100" cy="100" r="95" fill="none" stroke="#f3f4f6" stroke-width="2" opacity="0.3"/>
  
  <path d="M100 20 L108 45 L125 35 L140 50 L155 40 L145 65 L170 75 L155 85 L175 95 L150 105 L165 130 L140 125 L145 150 L125 140 L130 165 L100 155 L70 165 L75 140 L55 150 L60 125 L35 130 L50 105 L25 95 L45 85 L30 75 L55 65 L45 40 L60 50 L75 35 L92 45 Z" 
        fill="url(#leafGradient)" 
        stroke="#7f1d1d" 
        stroke-width="1.5"
        filter="url(#dropShadow)"/>
  
  <line x1="100" y1="45" x2="100" y2="155" stroke="#7f1d1d" stroke-width="2" opacity="0.6"/>
  
  <path d="M100 80 Q75 85 65 100" stroke="#7f1d1d" stroke-width="1.5" opacity="0.4" fill="none"/>
  <path d="M100 100 Q80 110 70 125" stroke="#7f1d1d" stroke-width="1.5" opacity="0.4" fill="none"/>
  <path d="M100 120 Q85 130 75 140" stroke="#7f1d1d" stroke-width="1.5" opacity="0.4" fill="none"/>
  
  <path d="M100 80 Q125 85 135 100" stroke="#7f1d1d" stroke-width="1.5" opacity="0.4" fill="none"/>
  <path d="M100 100 Q120 110 130 125" stroke="#7f1d1d" stroke-width="1.5" opacity="0.4" fill="none"/>
  <path d="M100 120 Q115 130 125 140" stroke="#7f1d1d" stroke-width="1.5" opacity="0.4" fill="none"/>
  
  <ellipse cx="100" cy="170" rx="4" ry="15" fill="url(#stemGradient)" stroke="#713f12" stroke-width="0.5"/>
  
  <ellipse cx="85" cy="75" rx="8" ry="12" fill="#fca5a5" opacity="0.4" transform="rotate(-15 85 75)"/>
</svg>
